<svg width="42" height="47" viewBox="0 0 42 47" fill="none" xmlns="http://www.w3.org/2000/svg">
<path d="M14.5 1.32695C9.70001 2.90193 8.40001 4.47691 7.50001 9.29451C7.10001 11.2401 6.3 12.9077 5.6 12.9077C3.4 12.9077 0 17.0768 0 19.6709C0 23.284 4.7 31.3442 8.80001 34.8648C10.7 36.5324 12.5 39.1265 12.9 40.8868C13.8 44.8706 16.8 46.2603 25.2 46.2603C35.1 46.2603 36.7 45.4264 37.5 40.053C37.8 37.6442 38.8 33.3825 39.6 30.6031C40.5 27.9163 41.4 21.8944 41.7 17.1694C42.4 3.36516 39.2 0.0299072 25 0.0299072C21.4 0.0299072 16.7 0.585782 14.5 1.32695ZM34 2.99458C39.2 4.66221 40.2 7.25629 39.6 17.0768C39.1 25.9708 37.9 30.881 35.6 33.753C34.4 35.2354 32.7 35.606 24.4 35.8839C12.7 36.2545 9.80001 35.0501 5.5 28.2869C2 22.7282 1.3 18.3738 3.5 16.243C6.1 13.9268 7.40001 14.8533 8.20001 19.7635C9.00001 24.859 9.80001 27.2678 10.6 26.6193C10.9 26.3414 10.6 22.5429 10 18.2812C8.10001 5.03279 10.7 1.97547 24.5 1.88282C27.8 1.88282 32.1 2.34606 34 2.99458ZM35.7 39.4971C35.3 41.35 34.5 43.2029 33.8 43.6662C31.7 44.8706 18.6 44.5 16.8 43.2029C16 42.6471 15 41.1647 14.7 39.9603C14.2 38.0148 14.4 37.9221 22.3 37.8295C26.8 37.7368 31.6 37.3662 33 36.9957C34.4 36.6251 35.7 36.2545 35.9 36.1618C36.1 36.0692 36 37.6442 35.7 39.4971Z" fill="white"/>
</svg>
