<svg width="48" height="48" viewBox="0 0 48 48" fill="none" xmlns="http://www.w3.org/2000/svg">
<path d="M0 24V48H24H48V24V-7.15256e-07H24H0V24ZM44 10V16H24H4V10V4H24H44V10ZM18 21.5C18 22 17 22.5 15.7 22.5C14 22.5 13.5 23.1 13.5 25C13.5 27 14.1 27.6 16.3 27.8C19.6 28.2 18.9 30 15.4 30C12.1 30 10.2 26 11.8 22.4C12.7 20.5 13.6 19.9 15.5 20.2C16.9 20.4 18 20.9 18 21.5ZM27 21C27 21.5 26 22 24.8 22H22.5L24.9 23.9C28 26.3 27.4 29.4 23.7 29.8C22.2 30 21 29.7 21 29.1C21 28.5 21.9 28 23 28C25.6 28 25.5 26.6 22.8 24.8C20 22.9 21 20 24.5 20C25.9 20 27 20.4 27 21ZM35 21C35 21.5 34 22 32.8 22C30.6 22 30.6 22.1 33.4 24.3C35.4 25.9 36.1 27.2 35.7 28.3C35 30.1 30 30.7 30 29C30 28.4 30.9 28 32 28C33.1 28 34 27.5 34 27C34 26.4 33.6 26 33.1 26C31.4 26 29.1 23 29.6 21.5C30.3 19.8 35 19.4 35 21ZM44 39V44H24H4V39V34H24H44V39Z" fill="white"/>
</svg>
