<svg width="26" height="26" viewBox="0 0 26 26" fill="none" xmlns="http://www.w3.org/2000/svg">
<path d="M21.125 0H4.875C2.18359 0 0 2.18359 0 4.875V21.125C0 23.8164 2.18359 26 4.875 26H21.125C23.8164 26 26 23.8164 26 21.125V4.875C26 2.18359 23.8164 0 21.125 0ZM20.4648 14.0039H18.0312V23.0078H13.9688V14.0039H12.3906V10.9688H13.9688V9.03516C13.9688 6.50391 15.0195 5 18.0078 5H21.0312V8.02344H19.2734C18.1133 8.02344 18.0352 8.45312 18.0352 9.26562L18.0312 10.9688H20.7969L20.4648 14.0039Z" fill="#1CB698"/>
</svg>
