<svg width="41" height="26" viewBox="0 0 41 26" fill="none" xmlns="http://www.w3.org/2000/svg">
<path d="M3.81545 25.9706C2.54879 25.9706 1.55712 25.5768 0.840455 24.7894C0.123788 24.0019 -0.134545 22.9133 0.0654545 21.5236L2.46545 6.00553C2.73212 4.36879 3.55712 2.96367 4.94045 1.79017C6.32379 0.61666 7.89879 0.0299072 9.66545 0.0299072H31.3154C33.0821 0.0299072 34.6571 0.61666 36.0405 1.79017C37.4238 2.96367 38.2488 4.36879 38.5154 6.00553L40.8655 21.5236C41.0655 22.9133 40.8071 24.0019 40.0905 24.7894C39.3738 25.5768 38.3821 25.9706 37.1155 25.9706C36.3488 25.9706 35.6988 25.8548 35.1655 25.6232C34.6321 25.3915 34.1821 25.1059 33.8154 24.7662L28.6155 19.9486H12.3155L7.11545 24.7662C6.74879 25.1059 6.29879 25.3915 5.76545 25.6232C5.23212 25.8548 4.58212 25.9706 3.81545 25.9706ZM4.71545 23.0059L11.0155 17.1693H29.9155L36.2155 23.0059C36.3821 23.1603 36.6821 23.2993 37.1155 23.4228C37.4155 23.4228 37.6405 23.2839 37.7905 23.0059C37.9405 22.728 37.9821 22.4501 37.9155 22.1721L35.5154 6.46875C35.3488 5.38789 34.8571 4.50776 34.0405 3.82836C33.2238 3.14896 32.3154 2.80927 31.3154 2.80927H9.61545C8.61545 2.80927 7.70712 3.14896 6.89045 3.82836C6.07379 4.50776 5.58212 5.38789 5.41545 6.46875L3.01545 22.1721C2.94879 22.4501 2.99045 22.728 3.14045 23.0059C3.29045 23.2839 3.51545 23.4228 3.81545 23.4228C4.04879 23.4228 4.34879 23.2839 4.71545 23.0059ZM31.4655 14.8531C31.9988 14.8531 32.4655 14.6679 32.8655 14.2973C33.2655 13.9267 33.4655 13.4944 33.4655 13.0002C33.4655 12.5061 33.2655 12.0738 32.8655 11.7032C32.4655 11.3326 31.9988 11.1473 31.4655 11.1473C30.9321 11.1473 30.4654 11.3326 30.0654 11.7032C29.6654 12.0738 29.4655 12.5061 29.4655 13.0002C29.4655 13.4944 29.6654 13.9267 30.0654 14.2973C30.4654 14.6679 30.9321 14.8531 31.4655 14.8531ZM27.2155 8.83121C27.7488 8.83121 28.2155 8.64592 28.6155 8.27534C29.0155 7.90475 29.2155 7.47241 29.2155 6.9783C29.2155 6.48419 29.0155 6.05185 28.6155 5.68127C28.2155 5.31069 27.7488 5.1254 27.2155 5.1254C26.6821 5.1254 26.2155 5.31069 25.8155 5.68127C25.4155 6.05185 25.2155 6.48419 25.2155 6.9783C25.2155 7.47241 25.4155 7.90475 25.8155 8.27534C26.2155 8.64592 26.6821 8.83121 27.2155 8.83121ZM11.4655 14.6215H13.9655V11.1473H17.7155V8.83121H13.9655V5.35701H11.4655V8.83121H7.71545V11.1473H11.4655V14.6215Z" fill="white"/>
</svg>
