<svg width="26" height="26" viewBox="0 0 26 26" fill="none" xmlns="http://www.w3.org/2000/svg">
<path d="M12.8125 0C5.73828 0 0 5.73828 0 12.8125C0 19.8867 5.73828 25.625 12.8125 25.625C19.8867 25.625 25.625 19.8867 25.625 12.8125C25.625 5.73828 19.8867 0 12.8125 0ZM12.8125 2C18.7734 2 23.625 6.85156 23.625 12.8125C23.625 13.2812 23.5898 13.7344 23.5312 14.1875C23.332 14.1367 22.707 13.9766 22.0312 13.9688C21.4258 13.9609 20.6992 14.0625 20.3125 14.125C20.4141 13.7109 20.5 13.2695 20.5 12.8125C20.5 11.6719 20.0703 10.5625 19.3125 9.625C19.5938 8.74219 19.9844 6.73438 19.2188 5.96875C17.3438 5.96875 16.2891 7.16016 16.0938 7.40625C15.2344 7.09375 14.3047 6.9375 13.3125 6.9375C12.3438 6.9375 11.4062 7.07812 10.5625 7.375C10.3008 7.05859 9.26562 5.96875 7.46875 5.96875C6.71875 6.71875 7.09375 8.65234 7.375 9.5625C6.58203 10.5156 6.125 11.6445 6.125 12.8125C6.125 13.2422 6.16016 13.6719 6.25 14.0625C5.92188 14.0352 4.58984 13.9375 4.0625 13.9375C3.53516 13.9375 2.66797 14.0508 2.09375 14.1875C2.03516 13.7344 2 13.2812 2 12.8125C2 6.85156 6.85156 2 12.8125 2ZM4.0625 14.1875C4.58203 14.1875 6.18359 14.332 6.34375 14.3438C6.37109 14.4375 6.40234 14.5312 6.4375 14.625C5.91016 14.582 4.78125 14.5078 4.0625 14.5938C3.18359 14.6992 2.53516 15.0469 2.28125 15.1875C2.22656 14.9414 2.16406 14.6875 2.125 14.4375C2.67578 14.3086 3.57422 14.1875 4.0625 14.1875ZM22.0312 14.2188C22.6875 14.2266 23.332 14.3672 23.5 14.4062C23.4844 14.5195 23.457 14.6367 23.4375 14.75C23.3516 14.7266 22.5703 14.4883 21.75 14.4688C21.3477 14.457 20.7109 14.5234 20.2188 14.5625C20.2422 14.5 20.2617 14.4375 20.2812 14.375C20.6211 14.3281 21.4297 14.2109 22.0312 14.2188ZM21.7188 14.7188C22.5156 14.7383 23.3594 14.9883 23.4062 15C22.668 18.5898 20.1484 21.5117 16.8125 22.8438V21.125C16.8125 20.043 16.168 18.6367 15.25 17.9375C17.8359 17.5664 19.4453 16.4219 20.125 14.8125C20.5898 14.7734 21.3008 14.707 21.7188 14.7188ZM4.875 14.8125C5.58984 14.8164 6.23047 14.8516 6.53125 14.875C7.22656 16.4492 8.82422 17.5703 11.375 17.9375C11.0859 18.1602 10.8164 18.4492 10.5938 18.7812C10.5859 18.793 10.5703 18.8008 10.5625 18.8125C10.0625 19.4141 9.125 19.375 8.25 19.375C7.35547 19.375 6.82031 18.6602 6.34375 18.0312C5.86328 17.4062 5.23828 17.3516 4.90625 17.3125C4.57422 17.2773 4.48438 17.4453 4.65625 17.5625C5.62891 18.2461 6.01172 19.082 6.40625 19.8125C6.76172 20.4688 7.49219 20.8125 8.3125 20.8125H9.84375C9.83203 20.9141 9.8125 21.0273 9.8125 21.125V23.1875C6.12891 22.125 3.27734 19.1719 2.34375 15.4375C2.53906 15.3281 3.22656 14.9453 4.09375 14.8438C4.30078 14.8203 4.57812 14.8125 4.875 14.8125ZM13.3125 20.8125C13.5898 20.8125 13.8125 21.0352 13.8125 21.3125V23.5625C13.4805 23.5938 13.1523 23.625 12.8125 23.625V21.3125C12.8125 21.0352 13.0352 20.8125 13.3125 20.8125ZM11.3125 21.4062C11.5898 21.4062 11.8125 21.6289 11.8125 21.9062V23.5625C11.4805 23.5312 11.1367 23.4961 10.8125 23.4375V21.9062C10.8125 21.6289 11.0352 21.4062 11.3125 21.4062ZM15.3125 21.4062C15.5898 21.4062 15.8125 21.6289 15.8125 21.9062V23.1875C15.4844 23.2812 15.1523 23.375 14.8125 23.4375V21.9062C14.8125 21.6289 15.0352 21.4062 15.3125 21.4062Z" fill="#1CB698"/>
</svg>
