<svg width="49" height="49" viewBox="0 0 49 49" fill="none" xmlns="http://www.w3.org/2000/svg">
<path d="M44.15 23.9L42.7 20.8L39.55 19.25L42.7 17.75L44.15 14.6L45.7 17.75L48.8 19.25L45.7 20.8L44.15 23.9ZM37.8 14L35.65 9.2L30.8 7L35.65 4.8L37.8 0L40.05 4.8L44.85 7L40.05 9.2L37.8 14ZM16.1 48.85C14.9 48.85 13.8583 48.3667 12.975 47.4C12.0917 46.4333 11.65 45.2833 11.65 43.95H20.6C20.6 45.2833 20.1417 46.4333 19.225 47.4C18.3083 48.3667 17.2667 48.85 16.1 48.85ZM7.75 40.45V37H24.45V40.45H7.75ZM7.95 33.55C5.55 31.9833 3.625 30.025 2.175 27.675C0.725 25.325 0 22.7 0 19.8C0 15.4333 1.58333 11.6583 4.75 8.475C7.91667 5.29167 11.7 3.7 16.1 3.7C20.4667 3.7 24.2417 5.29167 27.425 8.475C30.6083 11.6583 32.2 15.4333 32.2 19.8C32.2 22.6667 31.4917 25.2833 30.075 27.65C28.6583 30.0167 26.7167 31.9833 24.25 33.55H7.95ZM9.55 29H22.75C24.2167 27.9333 25.4 26.6083 26.3 25.025C27.2 23.4417 27.65 21.7 27.65 19.8C27.65 16.6667 26.5083 13.9667 24.225 11.7C21.9417 9.43333 19.2333 8.3 16.1 8.3C12.9333 8.3 10.225 9.43333 7.975 11.7C5.725 13.9667 4.6 16.6667 4.6 19.8C4.6 21.7 5.04167 23.4417 5.925 25.025C6.80833 26.6083 8.01667 27.9333 9.55 29ZM9.55 29C8.01667 27.9333 6.80833 26.6083 5.925 25.025C5.04167 23.4417 4.6 21.7 4.6 19.8C4.6 16.6667 5.725 13.9667 7.975 11.7C10.225 9.43333 12.9333 8.3 16.1 8.3C19.2333 8.3 21.9417 9.43333 24.225 11.7C26.5083 13.9667 27.65 16.6667 27.65 19.8C27.65 21.7 27.2 23.4417 26.3 25.025C25.4 26.6083 24.2167 27.9333 22.75 29H9.55Z" fill="#1CB698"/>
</svg>
