<svg width="48" height="48" viewBox="0 0 48 48" fill="none" xmlns="http://www.w3.org/2000/svg">
<path d="M24.2 34.4C24.7 34.4 25.125 34.225 25.475 33.875C25.825 33.525 26 33.0833 26 32.55V23.75C26 23.2833 25.8167 22.875 25.45 22.525C25.0833 22.175 24.6667 22 24.2 22C23.6667 22 23.225 22.175 22.875 22.525C22.525 22.875 22.35 23.3 22.35 23.8V32.6C22.35 33.1 22.5333 33.525 22.9 33.875C23.2667 34.225 23.7 34.4 24.2 34.4ZM24 17.9C24.5333 17.9 24.9833 17.725 25.35 17.375C25.7167 17.025 25.9 16.5833 25.9 16.05C25.9 15.4833 25.7167 15.0167 25.35 14.65C24.9833 14.2833 24.5333 14.1 24 14.1C23.4333 14.1 22.975 14.2833 22.625 14.65C22.275 15.0167 22.1 15.4833 22.1 16.05C22.1 16.5833 22.2833 17.025 22.65 17.375C23.0167 17.725 23.4667 17.9 24 17.9ZM24 44.8C21.0667 44.8 18.3333 44.2667 15.8 43.2C13.2667 42.1333 11.0667 40.6667 9.20001 38.8C7.33335 36.9333 5.86668 34.7333 4.80001 32.2C3.73335 29.6667 3.20001 26.9333 3.20001 24C3.20001 21.0667 3.73335 18.3333 4.80001 15.8C5.86668 13.2667 7.33335 11.0667 9.20001 9.20001C11.0667 7.33335 13.2667 5.86668 15.8 4.80001C18.3333 3.73335 21.0667 3.20001 24 3.20001C26.9333 3.20001 29.6667 3.73335 32.2 4.80001C34.7333 5.86668 36.9333 7.33335 38.8 9.20001C40.6667 11.0667 42.1333 13.2667 43.2 15.8C44.2667 18.3333 44.8 21.0667 44.8 24C44.8 26.9333 44.2667 29.6667 43.2 32.2C42.1333 34.7333 40.6667 36.9333 38.8 38.8C36.9333 40.6667 34.7333 42.1333 32.2 43.2C29.6667 44.2667 26.9333 44.8 24 44.8Z" fill="#1CB698"/>
</svg>
