<svg width="26" height="26" viewBox="0 0 26 26" fill="none" xmlns="http://www.w3.org/2000/svg">
<path d="M21.125 0H4.875C2.18359 0 0 2.18359 0 4.875V21.125C0 23.8164 2.18359 26 4.875 26H21.125C23.8164 26 26 23.8164 26 21.125V4.875C26 2.18359 23.8164 0 21.125 0ZM8.03906 22.0703H4L3.97656 9.97656H8.01562L8.03906 22.0703ZM5.91797 8.39453H5.89453C4.57422 8.39453 3.72266 7.48438 3.72266 6.35156C3.72266 5.19141 4.60156 4.3125 5.94531 4.3125C7.28906 4.3125 8.11328 5.19141 8.14062 6.35156C8.14062 7.48438 7.28516 8.39453 5.91797 8.39453ZM22.043 22.0703H17.9688V15.5C17.9688 13.9102 17.5469 12.8281 16.125 12.8281C15.0391 12.8281 14.4531 13.5586 14.1719 14.2656C14.0664 14.5195 14.0391 14.8672 14.0391 15.2227V22.0703H9.94531L9.92188 9.97656H14.0156L14.0391 11.6836C14.5625 10.875 15.4336 9.73047 17.5195 9.73047C20.1055 9.73047 22.0391 11.418 22.0391 15.0469V22.0703H22.043Z" fill="#1CB698"/>
</svg>
