<svg width="36" height="34" viewBox="0 0 36 34" fill="none" xmlns="http://www.w3.org/2000/svg">
<path d="M10.4 33.3824H3C2.2 33.3824 1.5 33.1045 0.9 32.5486C0.3 31.9928 0 31.3442 0 30.6031V16.7062C0 14.39 0.475 12.2206 1.425 10.1978C2.375 8.17503 3.65833 6.41476 5.275 4.91698C6.89167 3.4192 8.79167 2.23025 10.975 1.35011C13.1583 0.469976 15.5 0.0299072 18 0.0299072C20.5 0.0299072 22.8417 0.469976 25.025 1.35011C27.2083 2.23025 29.1083 3.4192 30.725 4.91698C32.3417 6.41476 33.625 8.17503 34.575 10.1978C35.525 12.2206 36 14.39 36 16.7062V30.6031C36 31.3442 35.7 31.9928 35.1 32.5486C34.5 33.1045 33.8 33.3824 33 33.3824H25.6V19.6708H33V16.7062C33 12.8459 31.5417 9.56472 28.625 6.86255C25.7083 4.16037 22.1667 2.80929 18 2.80929C13.8333 2.80929 10.2917 4.16037 7.375 6.86255C4.45833 9.56472 3 12.8459 3 16.7062V19.6708H10.4V33.3824ZM7.4 22.4502H3V30.6031H7.4V22.4502ZM28.6 22.4502V30.6031H33V22.4502H28.6ZM28.6 22.4502H33H28.6ZM7.4 22.4502H3H7.4Z" fill="white"/>
</svg>
