<svg width="40" height="40" viewBox="0 0 40 40" fill="none" xmlns="http://www.w3.org/2000/svg">
<path d="M12.7995 0C11.7811 0 10.8367 0.252869 10 0.787146C7.38522 2.46169 6.38994 6.54241 6.91732 11.623C2.68784 13.6568 0 16.6514 0 20C0 23.3486 2.68784 26.3432 6.91732 28.377C6.39021 33.4574 7.38522 37.5383 10 39.2129C10.835 39.7471 11.7795 40 12.7995 40C14.9705 40 17.4797 38.7914 20 36.7178C22.5205 38.7914 25.0327 40 27.2038 40C28.2221 40 29.1666 39.7471 30.0033 39.2129C32.618 37.5383 33.6133 33.4576 33.0859 28.377C37.3138 26.3432 40 23.3479 40 20C40 16.6514 37.3122 13.6568 33.0827 11.623C33.6098 6.54261 32.6148 2.46169 30 0.787146C29.165 0.25102 28.2205 0 27.2005 0C25.0295 0 22.5203 1.20863 20 3.28218C17.4796 1.20863 14.9698 0 12.7995 0ZM12.7995 3.23524C14.1022 3.23524 15.8249 4.00358 17.6953 5.42697C16.5956 6.57813 15.5186 7.88713 14.4824 9.34465C12.8018 9.61195 11.2172 10.0016 9.74935 10.4893C9.74147 10.3763 9.7228 10.2579 9.7168 10.1462C9.53846 6.85553 10.19 4.40253 11.4583 3.5891C11.8333 3.34876 12.2711 3.23524 12.7995 3.23524ZM27.2005 3.23524C27.7272 3.23524 28.1667 3.34876 28.5417 3.5891C29.81 4.40068 30.4615 6.85553 30.2832 10.1462C30.2772 10.2579 30.2586 10.3763 30.2507 10.4893C28.7818 10.0013 27.1961 9.61197 25.5143 9.34465C24.4782 7.88734 23.4044 6.578 22.3047 5.42697C24.1749 4.00382 25.8985 3.23524 27.2005 3.23524ZM20 7.48149C20.4518 7.93764 20.9004 8.41975 21.3542 8.94746C20.9045 8.93071 20.4573 8.90775 20 8.90775C19.5438 8.90775 19.0977 8.93079 18.6491 8.94746C19.1024 8.4203 19.5486 7.9372 20 7.48149ZM20 12.143C21.3811 12.143 22.6902 12.2286 23.9323 12.3777C24.6898 13.5197 25.4363 14.7271 26.1361 16.0715C26.8068 17.3601 27.3999 18.6791 27.9232 20C27.3998 21.3217 26.8072 22.6427 26.1361 23.9321C25.4385 25.2726 24.6938 26.4722 23.9388 27.6115C22.6529 27.7675 21.3337 27.857 20 27.857C18.6189 27.857 17.3098 27.7714 16.0677 27.6223C15.3102 26.4803 14.5637 25.2765 13.8639 23.9321C13.1928 22.6427 12.6003 21.3217 12.0768 20C12.6 18.6791 13.1932 17.3601 13.8639 16.0715C14.5618 14.731 15.306 13.5278 16.0612 12.3885C17.3471 12.2324 18.6663 12.143 20 12.143ZM27.9102 13.1432C28.5714 13.3203 29.2071 13.5114 29.8047 13.7245C29.6693 14.4031 29.5037 15.0946 29.3164 15.7935C29.1019 15.3471 28.894 14.8992 28.6621 14.4539C28.4236 13.9958 28.1587 13.5842 27.9102 13.1432ZM12.0866 13.1468C11.8388 13.5864 11.5757 13.9972 11.3379 14.4539C11.1061 14.8993 10.898 15.347 10.6836 15.7935C10.4959 15.0932 10.3276 14.4008 10.1921 13.7209C10.8006 13.5076 11.4347 13.3187 12.0866 13.1468ZM7.44792 14.9088C7.79908 16.5535 8.28622 18.2584 8.91276 19.9964C8.28754 21.7303 7.80245 23.432 7.45117 25.0731C4.54872 23.5185 2.91667 21.5832 2.91667 20C2.91667 18.375 4.50313 16.5231 7.16146 15.0496C7.2522 14.9993 7.3552 14.958 7.44792 14.9088ZM32.5488 14.9269C35.4513 16.4815 37.0833 18.4168 37.0833 20C37.0833 21.625 35.4969 23.4769 32.8385 24.9504C32.7478 25.0007 32.6448 25.042 32.5521 25.0912C32.2007 23.4456 31.7176 21.7391 31.0905 20C31.715 18.2676 32.1978 16.5666 32.5488 14.9269ZM20 16.3026C18.1583 16.3026 16.6667 17.9572 16.6667 20C16.6667 22.0428 18.1583 23.6974 20 23.6974C21.8417 23.6974 23.3333 22.0428 23.3333 20C23.3333 17.9572 21.8417 16.3026 20 16.3026ZM10.6836 24.2065C10.8981 24.6531 11.1092 25.1006 11.3411 25.5461C11.5794 26.0039 11.8415 26.4161 12.0898 26.8568C11.4286 26.6798 10.7929 26.4886 10.1953 26.2755C10.3308 25.5965 10.4961 24.9058 10.6836 24.2065ZM29.3164 24.2101C29.5039 24.9097 29.6725 25.5998 29.8079 26.2791C29.1994 26.4924 28.5653 26.6813 27.9134 26.8532C28.1612 26.4136 28.4243 26.0028 28.6621 25.5461C28.8934 25.1016 29.1024 24.6557 29.3164 24.2101ZM9.74935 29.5107C11.2182 29.9987 12.8039 30.388 14.4857 30.6554C15.5221 32.1134 16.5951 33.4252 17.6953 34.5766C15.8251 35.9996 14.1021 36.7684 12.7995 36.7684C12.2728 36.7684 11.8333 36.6512 11.4583 36.4109C10.19 35.5993 9.53846 33.1481 9.7168 29.8574C9.7229 29.7446 9.74132 29.6248 9.74935 29.5107ZM30.2507 29.5107C30.2586 29.6248 30.2771 29.7446 30.2832 29.8574C30.4615 33.1481 29.81 35.5975 28.5417 36.4109C28.1667 36.6512 27.7289 36.7684 27.2005 36.7684C25.8979 36.7684 24.1749 35.9999 22.3047 34.5766C23.4049 33.4251 24.4809 32.1136 25.5176 30.6554C27.1982 30.388 28.7828 29.9984 30.2507 29.5107ZM18.6458 31.0525C19.0955 31.0693 19.5427 31.0923 20 31.0923C20.4573 31.0923 20.9045 31.0693 21.3542 31.0525C20.9004 31.5802 20.4518 32.0624 20 32.5185C19.5482 32.0624 19.0996 31.5803 18.6458 31.0525Z" fill="white"/>
</svg>
