<svg width="48" height="48" viewBox="0 0 48 48" fill="none" xmlns="http://www.w3.org/2000/svg">
<path d="M0 24V48H24H48V24V-7.15256e-07H24H0V24ZM44 10V16H24H4V10V4H24H44V10ZM18 21C18 21.5 17 22 15.8 22H13.5L15.9 23.9C19 26.3 18.4 29.4 14.7 29.8C13.2 30 12 29.7 12 29.1C12 28.5 12.9 28 14 28C16.6 28 16.5 26.6 13.8 24.8C11 22.9 12 20 15.5 20C16.9 20 18 20.4 18 21ZM27.9 22.3C28.4 23.6 28.6 25.8 28.3 27.3C27.9 29.5 27.2 30 24.9 30C21.3 30 19.5 26.5 21 22.5C22.3 19.1 26.7 19 27.9 22.3ZM33 24C33 27.3 33.3 28 35 28C36.1 28 37 28.4 37 29C37 29.5 35.7 30 34 30C31.1 30 31 29.9 31 25C31 22.2 31.5 20 32 20C32.6 20 33 21.8 33 24ZM44 39V44H24H4V39V34H24H44V39Z" fill="white"/>
<path d="M22.4 23.4C22.1 24.3 22.1 25.8 22.4 26.7C23 28.1 23.3 28.2 23.9 27.1C24.4 26.4 25.3 26.1 26 26.5C26.8 27 27.1 26.5 26.8 24.9C26.4 22.1 23.3 21.1 22.4 23.4Z" fill="white"/>
</svg>
